<svg xmlns="http://www.w3.org/2000/svg" viewBox="0 0 1289.87 856.96"><defs><style>.cls-1{fill:#fbea26;}.cls-2{fill:#1d1d1b;}</style></defs><title>Fichier 1logo_</title><g id="Calque_2" data-name="Calque 2"><g id="Calque_1-2" data-name="Calque 1"><path class="cls-1" d="M1281,302.59q-154.22-36.29-316.14-67.16L941.83,0c-278.94-2.16-766.36,103-766.36,103l53.18,227.21c-65.37-17.42-179.31,30.26-179.31,30.26C9.06,438.78,0,539.58,0,539.58,63.69,643.25,138.55,675.26,138.55,675.26c40.9,12,125.74-22.08,161.94-38.08L350.05,849c107.69,41,666-89.53,666-89.53l-21.89-224q104.12-65.32,222.32-150.6,70.33-56.68,73.39-81.14Z"/><path class="cls-2" d="M308.79,315.14q4.76-1.11,33.5,54.13l.18.76q-8.36,9-6.55,16.8l.18.76q2.66,11.44,18.81,11.71l2.87-1.47.76-.18q1.46.26,14.3,20,21.24,36.87,35.93,33.46,12.41-2.88,12.12-20.51l-3.3-7.27q-11.19-10.06-30.83-42.69l-.18-.76q26.29-21,42.09-40.34,32.24-44.7,28.73-59.75-3.15-13.55-13.36-19.41-20.79-7.23-105.66,12.5L333,274.12l-5.16,2q-9.74-8.18-16.8-6.55a15,15,0,0,0-9.62,7.06q-7.19,21-6.12,25.55l.35,1.53Q297.81,312.87,308.79,315.14Zm35.33-10.63a728.3,728.3,0,0,1,76.42-13.75l.76-.18c.33,1.4-.87,4.35-3.57,8.87q-28.11,41.71-47.59,51.27-3-1.9-26.61-45.28Z"/><path class="cls-2" d="M456.62,340.48l.55,12.74,1.06,4.58-.59.94.94.59,1.77,7.63Q482.9,417.2,523,407.88q27.08-6.3,52.25-34.67,24-34.95,17.21-64.32Q587.14,286.2,575.69,275q-29.2-26.19-56.1-19.93l-8.39,2q-50.53,11.75-57.82,73Zm31.83,5.47q-.37-14.58,5.39-39.05-1.77-7.62,20-17.53l9.92-2.31a19.45,19.45,0,0,1,8.75-.43q22.55,3.61,27.87,26.49,3.46,14.88-4.12,30.71-16.78,26.41-35.47,30.76l-9.16,2.13q-11.83,2.75-21.29-22.39Z"/><path class="cls-2" d="M568.95,254.65q4.76-1.11,33.5,54.13l.18.76q-8.35,9-6.55,16.8l.18.76q2.66,11.44,18.81,11.71l2.87-1.47.76-.18q1.46.26,14.3,20,21.24,36.87,35.93,33.46,12.41-2.88,12.12-20.51l-3.3-7.27q-11.19-10.06-30.83-42.69l-.18-.76q26.29-21,42.09-40.34,32.24-44.7,28.73-59.75-3.15-13.55-13.36-19.41-20.79-7.23-105.66,12.5l-5.34,1.24-5.16,2q-9.74-8.18-16.8-6.55a15,15,0,0,0-9.62,7.06q-7.19,21-6.12,25.55l.35,1.53Q558,252.38,568.95,254.65ZM604.27,244a728.3,728.3,0,0,1,76.42-13.75l.76-.18c.33,1.4-.87,4.35-3.57,8.87q-28.11,41.71-47.59,51.27-3-1.9-26.61-45.28Z"/><path class="cls-2" d="M612.84,523l-23.67-39.53Q550,437,522.76,443.38l-5.34,1.24q-10.69,2.49-21.63,21.11a164.63,164.63,0,0,0-4.83,16.6q-15-8.78-26.5-6.1-35.66,8.29-89.76,39.37-9.22-5.09-13-4.21l-.76.18q-15.58,5.62-12.65,18.22,4.86,16.55,59.11,102.06Q423,664.41,437.47,661q15.36-6.59,12.65-18.22Q449,638.06,428.69,606l-.18-.76,30.07-26.29q17.74-23.13,27.63-40.81a307.39,307.39,0,0,0,8,55.84l2.89,9q12.92,34.8,30.46,30.71l-.18-.76q11.44-2.66,11.12-17.87l-6.48-10.56-.35-1.53q48.43-33.77,63.7-37.33l.76-.18,13.27,36.32q6,17.91,18.75,14.94,16.29-6,13.41-18.4-2.22-9.55-15.4-45.47l-.18-.76q10.16-11.6,8.3-19.62Q625.24,520.08,612.84,523Zm-149.73-11Q443,557.81,412.44,577.6q-2.29.53-21.66-34.37,45.27-26.62,72-32.82Zm59.27,57.79-.76.18a172.79,172.79,0,0,1-3.16-27.41q-1.78-64.72,10-67.47,6.29-1.46,22.21,12.53,12.74,10.72,32.08,48Q545,555.41,522.39,569.73Z"/><path class="cls-2" d="M898.06,382.66,888.15,385l-114.4,47.51q-15.67,3.64-22.7,9.7a18.34,18.34,0,0,0-3.19-6.9q-15.49-29.38-63.73-18.15-24.42,5.68-80.73,33.25-11,15-8.94,23.79c1.82,5.48,3.48,8,5,7.68q36.87,55.77,58.9,80.39,6.41,13.78,13.24,15.42,24.88,23.17,35.38,20.72l1.53-.35q12-2.79,11.71-18.81-1.29-5.54-13.82-14.48c-.21-.88,1.44-1.82,5-2.77l14.5-3.37,27.29-7.15q26.69-6.2,23.15-21.47-6.4-16.2-18.4-13.41l-31.69,9-3.23-.05-.18-.76q23.43-35.2,28.53-58.63a13.47,13.47,0,0,0,13.42,3.84l53.16-20.4q2.7,11.63,37.52,74.91,15.35,35.83,30.05,32.42,15.58-5.62,12.65-18.22l-.18-.76q-48.71-91.81-50.6-100,32.21-17.93,62.54-25,11.44-2.66,12.07-17.28Q917.9,378,898.06,382.66ZM720,453.81q2,21.65-42.73,79.09l-.76.18q-7.48-5.31-44.42-59.63-1.06-4.58,58.55-24.87,26.69-6.2,28.65,2.18Z"/><path class="cls-2" d="M834.26,304.85q-.3-11.83,4.38-31.68-1.44-6.18,16.27-14.22l8-1.87a15.78,15.78,0,0,1,7.1-.35q18.3,2.93,22.61,21.49,2.81,12.07-3.34,24.92-13.61,21.43-28.78,25l-7.43,1.73q-9.6,2.23-17.27-18.17Z"/></g></g></svg>